<?xml version="1.0" encoding="utf-8"?>
<!-- Generator: Adobe Illustrator 19.0.0, SVG Export Plug-In . SVG Version: 6.00 Build 0)  -->
<svg version="1.1" baseProfile="tiny" id="图层_1"
	 xmlns="http://www.w3.org/2000/svg" xmlns:xlink="http://www.w3.org/1999/xlink" x="0px" y="0px" viewBox="0 0 500 500"
	 xml:space="preserve">
<path id="XMLID_11_" fill="#fd7500" d="M432.3,198.5c-41.7,0-75.3-33.8-75.3-75.5c0-1,0.2-2,0.2-3H8.3l-1,0l0,340H453V195.5
	C446,197.4,439.6,198.5,432.3,198.5z M68,188h269v11H68V188z M400,393H66v-11h334V393z M400,328H66v-11h334V328z M400,264H66v-11
	h334V264z"/>
<path id="XMLID_23_" fill="#fd7500" d="M432.7,58.2c-35.8,0-64.8,29-64.8,64.8s29,64.8,64.8,64.8s64.8-29,64.8-64.8S468.5,58.2,432.7,58.2z
	 M463,124v7h-25v10h25v6h-25v25h-11v-25h-25v-6h25v-10h-25v-7h22.3L399,75h11.9l12.4,26.6c3,6.7,6,13.4,9.2,20.4h0.7
	c3.4-7,6.3-13.7,9.6-20.4L455.4,75h11.2l-25.3,49H463z"/>
</svg>
